<svg width="32" height="32" viewBox="0 0 32 32" fill="none" xmlns="http://www.w3.org/2000/svg">
<rect width="32" height="32" fill="#1E1E1E"/>
<rect width="32" height="32" rx="1" fill="black"/>
<path d="M17.793 0.5L5.64648 12.6465C5.55272 12.7403 5.5 12.8674 5.5 13V14C5.5 14.1326 5.55272 14.2597 5.64648 14.3535L10.6465 19.3535C10.7403 19.4473 10.8674 19.5 11 19.5H12C12.1326 19.5 12.2597 19.4473 12.3535 19.3535L13.5 18.207V18.793L9.79297 22.5H8.20703L2.5 16.793L2.5 15.207L17.207 0.5H17.793Z" fill="white" stroke="white" stroke-linejoin="round"/>
<path d="M14.207 31.5L26.3535 19.3535C26.4473 19.2597 26.5 19.1326 26.5 19L26.5 18L26.4902 17.9023C26.4711 17.8061 26.4239 17.7169 26.3535 17.6465L21.3535 12.6465C21.2597 12.5527 21.1326 12.5 21 12.5L20 12.5C19.8674 12.5 19.7403 12.5527 19.6465 12.6465L18.5 13.793L18.5 13.207L22.207 9.5L23.793 9.5L29.5 15.207L29.5 16.793L14.793 31.5L14.207 31.5Z" fill="white" stroke="white" stroke-linejoin="round"/>
<path d="M21.9341 31V30.25H22.6841V31H21.9341ZM24.1621 28.475H24.9171L25.2721 28.68V27.35H25.7571V31.025H25.3921L25.2721 30.82L24.9171 31.025H24.1621L23.5821 30.69V28.81L24.1621 28.475ZM25.2721 30.59V28.91H24.0671V30.59H25.2721ZM28.5308 30.565V31H27.1358L26.5558 30.665V28.81L27.1358 28.475H27.9508L28.5308 28.81V29.92H27.0408V30.565H28.5308ZM27.0408 28.91V29.485H28.0458V28.91H27.0408ZM29.5042 28.5L30.2392 30.54H30.2492L30.9892 28.5H31.4642L30.5392 31H29.9542L29.0292 28.5H29.5042Z" fill="#10B981"/>
<path d="M17.5 21V11L16 9.5L14.5 11V21L16 22.5L17.5 21Z" fill="#10B981"/>
</svg>
